<svg width="331" height="77" viewBox="0 0 331 77" fill="none" xmlns="http://www.w3.org/2000/svg">
<path d="M65.912 35.772C76.928 37.536 80.492 39.012 80.492 43.368C80.492 48.588 73.796 51 64.616 51C59.396 51 52.808 49.776 50.144 48.012V44.628C53.132 46.716 59.432 48.048 64.76 48.048C70.772 48.048 77.18 46.896 77.18 43.368C77.18 41.028 74.228 40.128 64.616 38.616C52.7 36.744 50 35.484 50 31.416C50 26.952 55.94 24 65.588 24C71.06 24 76.064 25.044 79.196 26.556V29.976C76.208 28.14 70.916 26.916 65.588 26.916C58.244 26.916 53.276 28.68 53.276 31.416C53.276 33.648 56.48 34.26 65.912 35.772Z" fill="black"/>
<path d="M87.5033 31.74H84.2633V41.316C84.2633 47.94 89.1233 51 94.4873 51C99.2753 51 102.371 48.984 104.135 46.824V50.46H107.375V31.74H104.135V40.272C104.135 46.644 99.5633 48.228 95.2793 48.228C90.2753 48.228 87.5033 46.032 87.5033 40.776V31.74Z" fill="black"/>
<path d="M116.379 35.016V24.54H113.139V50.46H116.379V47.148C118.719 49.272 122.175 51 126.783 51C134.667 51 139.743 46.608 139.743 41.1C139.743 35.988 134.487 31.2 126.603 31.2C122.031 31.2 118.683 32.892 116.379 35.016ZM115.839 41.1C115.839 37.068 119.979 33.972 126.135 33.972C132.291 33.972 136.431 37.068 136.431 41.1C136.431 45.132 132.291 48.228 126.135 48.228C119.979 48.228 115.839 45.132 115.839 41.1Z" fill="black"/>
<path d="M142.817 49.092V46.176C144.797 47.364 148.757 48.3 153.437 48.3C158.909 48.3 162.041 46.932 162.041 45.096C162.041 43.512 159.989 43.08 152.933 42.288C145.769 41.496 142.637 40.236 142.637 37.176C142.637 33.864 147.101 31.2 154.841 31.2C159.485 31.2 162.869 31.956 164.381 32.964V35.772C162.041 34.44 158.621 33.828 154.841 33.828C149.369 33.828 145.877 35.196 145.877 36.96C145.877 38.652 148.037 39.048 154.841 39.804C162.833 40.704 165.353 42 165.353 45.024C165.353 48.588 160.781 51 153.149 51C148.541 51 144.581 50.028 142.817 49.092Z" fill="black"/>
<path d="M190.838 46.104V49.344C188.642 50.496 185.69 51 182.81 51C174.098 51 168.23 47.112 168.23 41.1C168.23 35.484 174.17 31.2 182.81 31.2C186.014 31.2 188.678 31.848 190.658 32.892V36.096C188.786 34.728 186.194 33.972 182.81 33.972C175.97 33.972 171.542 36.924 171.542 41.1C171.542 45.276 175.97 48.228 182.81 48.228C185.87 48.228 188.858 47.58 190.838 46.104Z" fill="black"/>
<path d="M198.471 31.74H195.159V50.46H198.471V41.028C198.471 35.7 203.295 33.972 206.607 33.972C209.271 33.972 211.071 34.62 212.043 35.484V32.208C210.891 31.596 209.127 31.2 207.003 31.2C203.043 31.2 200.199 33.036 198.471 35.124V31.74Z" fill="black"/>
<path d="M217.275 24.108C218.859 24.108 219.975 25.044 219.975 26.232C219.975 27.42 218.859 28.32 217.275 28.32C215.691 28.32 214.575 27.42 214.575 26.232C214.575 25.044 215.691 24.108 217.275 24.108ZM215.655 50.46H218.895V31.74H215.655V50.46Z" fill="black"/>
<path d="M227.895 35.016V24.54H224.655V50.46H227.895V47.148C230.235 49.272 233.691 51 238.299 51C246.183 51 251.259 46.608 251.259 41.1C251.259 35.988 246.003 31.2 238.119 31.2C233.547 31.2 230.199 32.892 227.895 35.016ZM227.355 41.1C227.355 37.068 231.495 33.972 237.651 33.972C243.807 33.972 247.947 37.068 247.947 41.1C247.947 45.132 243.807 48.228 237.651 48.228C231.495 48.228 227.355 45.132 227.355 41.1Z" fill="black"/>
<path d="M254.152 41.1C254.152 35.628 259.48 31.2 267.472 31.2C275.5 31.2 280.792 35.556 280.792 40.92V41.352H257.428C257.572 46.248 261.892 48.3 269.524 48.3C273.34 48.3 276.94 47.4 279.424 45.924V48.912C276.832 50.244 273.088 51 269.524 51C259.408 51 254.152 47.688 254.152 41.1ZM257.788 39.012H277.192C276.184 36.024 272.764 33.72 267.472 33.72C262.396 33.72 258.904 35.988 257.788 39.012Z" fill="black"/>
<path d="M329.5 38C329.5 40.1508 328.557 42.3718 326.518 44.6603C324.47 46.958 321.381 49.2462 317.279 51.473C309.076 55.9258 297.108 59.983 282.19 63.4081C252.38 70.2528 211.123 74.5 165.5 74.5C119.877 74.5 78.6198 70.2528 48.8095 63.4081C33.8923 59.983 21.924 55.9258 13.7214 51.473C9.61932 49.2462 6.52993 46.958 4.48219 44.6603C2.44264 42.3718 1.5 40.1508 1.5 38C1.5 35.8492 2.44264 33.6282 4.48219 31.3397C6.52993 29.042 9.61932 26.7538 13.7214 24.527C21.924 20.0742 33.8923 16.017 48.8095 12.5919C78.6198 5.74724 119.877 1.5 165.5 1.5C211.123 1.5 252.38 5.74724 282.19 12.5919C297.108 16.017 309.076 20.0742 317.279 24.527C321.381 26.7538 324.47 29.042 326.518 31.3397C328.557 33.6282 329.5 35.8492 329.5 38Z" stroke="black" stroke-width="3"/>
</svg>
