<svg width="346" height="93" viewBox="0 0 346 93" fill="none" xmlns="http://www.w3.org/2000/svg">
<g filter="url(#filter0_d_2179_66)">
<rect x="9" y="9" width="328" height="75" rx="37.5" stroke="#DCD9D9" stroke-width="2" shape-rendering="crispEdges"/>
</g>
<path d="M73.5102 44.312C84.5262 46.076 88.0902 47.552 88.0902 51.908C88.0902 57.128 81.3942 59.54 72.2142 59.54C66.9942 59.54 60.4062 58.316 57.7422 56.552V53.168C60.7302 55.256 67.0302 56.588 72.3582 56.588C78.3702 56.588 84.7782 55.436 84.7782 51.908C84.7782 49.568 81.8262 48.668 72.2142 47.156C60.2982 45.284 57.5982 44.024 57.5982 39.956C57.5982 35.492 63.5382 32.54 73.1862 32.54C78.6582 32.54 83.6622 33.584 86.7942 35.096V38.516C83.8062 36.68 78.5142 35.456 73.1862 35.456C65.8422 35.456 60.8742 37.22 60.8742 39.956C60.8742 42.188 64.0782 42.8 73.5102 44.312ZM95.1015 40.28H91.8615V49.856C91.8615 56.48 96.7215 59.54 102.085 59.54C106.873 59.54 109.969 57.524 111.733 55.364V59H114.973V40.28H111.733V48.812C111.733 55.184 107.161 56.768 102.877 56.768C97.8735 56.768 95.1015 54.572 95.1015 49.316V40.28ZM123.977 43.556V33.08H120.737V59H123.977V55.688C126.317 57.812 129.773 59.54 134.381 59.54C142.265 59.54 147.341 55.148 147.341 49.64C147.341 44.528 142.085 39.74 134.201 39.74C129.629 39.74 126.281 41.432 123.977 43.556ZM123.437 49.64C123.437 45.608 127.577 42.512 133.733 42.512C139.889 42.512 144.029 45.608 144.029 49.64C144.029 53.672 139.889 56.768 133.733 56.768C127.577 56.768 123.437 53.672 123.437 49.64ZM150.415 57.632V54.716C152.395 55.904 156.355 56.84 161.035 56.84C166.507 56.84 169.639 55.472 169.639 53.636C169.639 52.052 167.587 51.62 160.531 50.828C153.367 50.036 150.235 48.776 150.235 45.716C150.235 42.404 154.699 39.74 162.439 39.74C167.083 39.74 170.467 40.496 171.979 41.504V44.312C169.639 42.98 166.219 42.368 162.439 42.368C156.967 42.368 153.475 43.736 153.475 45.5C153.475 47.192 155.635 47.588 162.439 48.344C170.431 49.244 172.951 50.54 172.951 53.564C172.951 57.128 168.379 59.54 160.747 59.54C156.139 59.54 152.179 58.568 150.415 57.632ZM198.437 54.644V57.884C196.241 59.036 193.289 59.54 190.409 59.54C181.697 59.54 175.829 55.652 175.829 49.64C175.829 44.024 181.769 39.74 190.409 39.74C193.613 39.74 196.277 40.388 198.257 41.432V44.636C196.385 43.268 193.793 42.512 190.409 42.512C183.569 42.512 179.141 45.464 179.141 49.64C179.141 53.816 183.569 56.768 190.409 56.768C193.469 56.768 196.457 56.12 198.437 54.644ZM206.069 40.28H202.757V59H206.069V49.568C206.069 44.24 210.893 42.512 214.205 42.512C216.869 42.512 218.669 43.16 219.641 44.024V40.748C218.489 40.136 216.725 39.74 214.601 39.74C210.641 39.74 207.797 41.576 206.069 43.664V40.28ZM224.873 32.648C226.457 32.648 227.573 33.584 227.573 34.772C227.573 35.96 226.457 36.86 224.873 36.86C223.289 36.86 222.173 35.96 222.173 34.772C222.173 33.584 223.289 32.648 224.873 32.648ZM223.253 59H226.493V40.28H223.253V59ZM235.493 43.556V33.08H232.253V59H235.493V55.688C237.833 57.812 241.289 59.54 245.897 59.54C253.781 59.54 258.857 55.148 258.857 49.64C258.857 44.528 253.601 39.74 245.717 39.74C241.145 39.74 237.797 41.432 235.493 43.556ZM234.953 49.64C234.953 45.608 239.093 42.512 245.249 42.512C251.405 42.512 255.545 45.608 255.545 49.64C255.545 53.672 251.405 56.768 245.249 56.768C239.093 56.768 234.953 53.672 234.953 49.64ZM261.751 49.64C261.751 44.168 267.079 39.74 275.071 39.74C283.099 39.74 288.391 44.096 288.391 49.46V49.892H265.027C265.171 54.788 269.491 56.84 277.123 56.84C280.939 56.84 284.539 55.94 287.023 54.464V57.452C284.431 58.784 280.687 59.54 277.123 59.54C267.007 59.54 261.751 56.228 261.751 49.64ZM265.387 47.552H284.791C283.783 44.564 280.363 42.26 275.071 42.26C269.995 42.26 266.503 44.528 265.387 47.552Z" fill="black"/>
<defs>
<filter id="filter0_d_2179_66" x="0" y="0" width="346" height="93" filterUnits="userSpaceOnUse" color-interpolation-filters="sRGB">
<feFlood flood-opacity="0" result="BackgroundImageFix"/>
<feColorMatrix in="SourceAlpha" type="matrix" values="0 0 0 0 0 0 0 0 0 0 0 0 0 0 0 0 0 0 127 0" result="hardAlpha"/>
<feMorphology radius="1" operator="dilate" in="SourceAlpha" result="effect1_dropShadow_2179_66"/>
<feOffset/>
<feGaussianBlur stdDeviation="3.5"/>
<feComposite in2="hardAlpha" operator="out"/>
<feColorMatrix type="matrix" values="0 0 0 0 0.8125 0 0 0 0 0.802344 0 0 0 0 0.802344 0 0 0 0.25 0"/>
<feBlend mode="normal" in2="BackgroundImageFix" result="effect1_dropShadow_2179_66"/>
<feBlend mode="normal" in="SourceGraphic" in2="effect1_dropShadow_2179_66" result="shape"/>
</filter>
</defs>
</svg>
